<svg viewBox="0 0 20 17" xmlns="http://www.w3.org/2000/svg"><path d="M19.96 2.024a8.05 8.05 0 0 1-2.353.676A4.293 4.293 0 0 0 19.409.327a8.245 8.245 0 0 1-2.606 1.032A4.002 4.002 0 0 0 13.811 0c-2.264 0-4.1 1.92-4.1 4.285 0 .34.038.667.106.98-3.408-.169-6.429-1.88-8.45-4.468a4.35 4.35 0 0 0-.555 2.157c0 1.49.725 2.8 1.823 3.57a3.952 3.952 0 0 1-1.857-.537v.053c0 2.079 1.411 3.812 3.288 4.207a3.992 3.992 0 0 1-1.843.074c.526 1.702 2.038 2.943 3.837 2.978A7.997 7.997 0 0 1 0 15.075C1.824 16.29 3.973 17 6.297 17c7.545 0 11.666-6.533 11.666-12.189 0-.182 0-.366-.013-.549A8.5 8.5 0 0 0 20 2.042l-.04-.018z" fill="currentColor"/></svg>